<mxfile host="app.diagrams.net" agent="Mozilla/5.0 (Windows NT 10.0; Win64; x64) AppleWebKit/537.36 (KHTML, like Gecko) Chrome/128.0.0.0 Safari/537.36 " version="24.7.14">
  <diagram name="Page-1" id="JIbHWAG7rwe-sM9Iqo25">
    <mxGraphModel dx="1232" dy="1103" grid="1" gridSize="10" guides="1" tooltips="1" connect="1" arrows="1" fold="1" page="1" pageScale="1" pageWidth="850" pageHeight="1100" math="0" shadow="0">
      <root>
        <mxCell id="0" />
        <mxCell id="1" parent="0" />
        <mxCell id="RqoILsTlRDQaW1D0zA9s-3" value="" style="group" vertex="1" connectable="0" parent="1">
          <mxGeometry x="270" y="400" width="260" height="60" as="geometry" />
        </mxCell>
        <mxCell id="RqoILsTlRDQaW1D0zA9s-1" value="" style="shape=cylinder3;whiteSpace=wrap;html=1;boundedLbl=1;backgroundOutline=1;size=15;direction=south;" vertex="1" parent="RqoILsTlRDQaW1D0zA9s-3">
          <mxGeometry width="260" height="60" as="geometry" />
        </mxCell>
        <mxCell id="RqoILsTlRDQaW1D0zA9s-2" value="" style="shape=image;verticalLabelPosition=bottom;labelBackgroundColor=default;verticalAlign=top;aspect=fixed;imageAspect=0;image=https://static-00.iconduck.com/assets.00/kafka-icon-2048x935-cvu4503l.png;" vertex="1" parent="RqoILsTlRDQaW1D0zA9s-3">
          <mxGeometry x="70" y="2.6000000000000227" width="120" height="54.8" as="geometry" />
        </mxCell>
        <mxCell id="RqoILsTlRDQaW1D0zA9s-4" value="" style="whiteSpace=wrap;html=1;aspect=fixed;rounded=1;" vertex="1" parent="1">
          <mxGeometry x="178.5" y="230" width="80" height="80" as="geometry" />
        </mxCell>
        <mxCell id="RqoILsTlRDQaW1D0zA9s-10" style="edgeStyle=orthogonalEdgeStyle;rounded=0;orthogonalLoop=1;jettySize=auto;html=1;dashed=1;entryX=0;entryY=0.5;entryDx=0;entryDy=0;entryPerimeter=0;" edge="1" parent="1" source="RqoILsTlRDQaW1D0zA9s-5" target="RqoILsTlRDQaW1D0zA9s-1">
          <mxGeometry relative="1" as="geometry">
            <mxPoint x="400" y="400" as="targetPoint" />
            <Array as="points">
              <mxPoint x="570" y="360" />
              <mxPoint x="400" y="360" />
            </Array>
          </mxGeometry>
        </mxCell>
        <mxCell id="RqoILsTlRDQaW1D0zA9s-16" value="&amp;lt;&amp;lt;notification&amp;gt;&amp;gt;" style="edgeLabel;html=1;align=center;verticalAlign=middle;resizable=0;points=[];" vertex="1" connectable="0" parent="RqoILsTlRDQaW1D0zA9s-10">
          <mxGeometry x="-0.5" relative="1" as="geometry">
            <mxPoint as="offset" />
          </mxGeometry>
        </mxCell>
        <mxCell id="RqoILsTlRDQaW1D0zA9s-7" value="" style="whiteSpace=wrap;html=1;aspect=fixed;rounded=1;" vertex="1" parent="1">
          <mxGeometry x="360" y="560" width="80" height="80" as="geometry" />
        </mxCell>
        <mxCell id="RqoILsTlRDQaW1D0zA9s-8" style="edgeStyle=orthogonalEdgeStyle;rounded=0;orthogonalLoop=1;jettySize=auto;html=1;entryX=0;entryY=0.5;entryDx=0;entryDy=0;entryPerimeter=0;dashed=1;endArrow=none;endFill=0;" edge="1" parent="1" source="RqoILsTlRDQaW1D0zA9s-4" target="RqoILsTlRDQaW1D0zA9s-1">
          <mxGeometry relative="1" as="geometry">
            <Array as="points">
              <mxPoint x="220" y="360" />
              <mxPoint x="400" y="360" />
            </Array>
          </mxGeometry>
        </mxCell>
        <mxCell id="RqoILsTlRDQaW1D0zA9s-15" value="&amp;lt;&amp;lt;notification&amp;gt;&amp;gt;" style="edgeLabel;html=1;align=center;verticalAlign=middle;resizable=0;points=[];" vertex="1" connectable="0" parent="RqoILsTlRDQaW1D0zA9s-8">
          <mxGeometry x="-0.85" y="2" relative="1" as="geometry">
            <mxPoint as="offset" />
          </mxGeometry>
        </mxCell>
        <mxCell id="RqoILsTlRDQaW1D0zA9s-11" style="edgeStyle=orthogonalEdgeStyle;rounded=0;orthogonalLoop=1;jettySize=auto;html=1;entryX=0.5;entryY=0;entryDx=0;entryDy=0;dashed=1;" edge="1" parent="1" source="RqoILsTlRDQaW1D0zA9s-1" target="RqoILsTlRDQaW1D0zA9s-7">
          <mxGeometry relative="1" as="geometry" />
        </mxCell>
        <mxCell id="RqoILsTlRDQaW1D0zA9s-14" value="&amp;lt;&amp;lt;consume&amp;gt;&amp;gt;" style="edgeLabel;html=1;align=center;verticalAlign=middle;resizable=0;points=[];" vertex="1" connectable="0" parent="RqoILsTlRDQaW1D0zA9s-11">
          <mxGeometry x="-0.12" y="-1" relative="1" as="geometry">
            <mxPoint x="1" y="-14" as="offset" />
          </mxGeometry>
        </mxCell>
        <mxCell id="RqoILsTlRDQaW1D0zA9s-18" value="" style="shape=image;verticalLabelPosition=bottom;labelBackgroundColor=default;verticalAlign=top;aspect=fixed;imageAspect=0;image=https://lkrnac.net/wp-stuff/uploads/2014/11/spring-boot-logo-604x270.png;" vertex="1" parent="1">
          <mxGeometry x="140" y="234.91000000000008" width="157" height="70.18" as="geometry" />
        </mxCell>
        <mxCell id="RqoILsTlRDQaW1D0zA9s-21" value="" style="shape=image;verticalLabelPosition=bottom;labelBackgroundColor=default;verticalAlign=top;aspect=fixed;imageAspect=0;image=https://lkrnac.net/wp-stuff/uploads/2014/11/spring-boot-logo-604x270.png;" vertex="1" parent="1">
          <mxGeometry x="321.5" y="564.9100000000001" width="157" height="70.18" as="geometry" />
        </mxCell>
        <mxCell id="RqoILsTlRDQaW1D0zA9s-22" value="Profile Service" style="text;html=1;align=center;verticalAlign=middle;resizable=0;points=[];autosize=1;strokeColor=none;fillColor=none;" vertex="1" parent="1">
          <mxGeometry x="168.5" y="200" width="100" height="30" as="geometry" />
        </mxCell>
        <mxCell id="RqoILsTlRDQaW1D0zA9s-25" value="Notifications Service" style="text;html=1;align=center;verticalAlign=middle;resizable=0;points=[];autosize=1;strokeColor=none;fillColor=none;labelBackgroundColor=default;" vertex="1" parent="1">
          <mxGeometry x="335" y="520" width="130" height="30" as="geometry" />
        </mxCell>
        <mxCell id="RqoILsTlRDQaW1D0zA9s-27" value="" style="group" vertex="1" connectable="0" parent="1">
          <mxGeometry x="490" y="200" width="162" height="110" as="geometry" />
        </mxCell>
        <mxCell id="RqoILsTlRDQaW1D0zA9s-5" value="" style="whiteSpace=wrap;html=1;aspect=fixed;rounded=1;" vertex="1" parent="RqoILsTlRDQaW1D0zA9s-27">
          <mxGeometry x="38.5" y="30" width="80" height="80" as="geometry" />
        </mxCell>
        <mxCell id="RqoILsTlRDQaW1D0zA9s-20" value="" style="shape=image;verticalLabelPosition=bottom;labelBackgroundColor=default;verticalAlign=top;aspect=fixed;imageAspect=0;image=https://lkrnac.net/wp-stuff/uploads/2014/11/spring-boot-logo-604x270.png;" vertex="1" parent="RqoILsTlRDQaW1D0zA9s-27">
          <mxGeometry y="34.91000000000008" width="157" height="70.18" as="geometry" />
        </mxCell>
        <mxCell id="RqoILsTlRDQaW1D0zA9s-23" value="Posts Comments Service" style="text;html=1;align=center;verticalAlign=middle;resizable=0;points=[];autosize=1;strokeColor=none;fillColor=none;" vertex="1" parent="RqoILsTlRDQaW1D0zA9s-27">
          <mxGeometry x="2" width="160" height="30" as="geometry" />
        </mxCell>
      </root>
    </mxGraphModel>
  </diagram>
</mxfile>
